<svg xmlns="http://www.w3.org/2000/svg" viewBox="0 0 256 256" focusable="false" color="var(--token-2c541943-a99a-4ecb-bbe1-39c81e32ad57, rgb(142, 142, 142))" style="user-select: none; width: 100%; height: 100%; display: inline-block; fill: var(--token-2c541943-a99a-4ecb-bbe1-39c81e32ad57, rgb(142, 142, 142)); color: var(--token-2c541943-a99a-4ecb-bbe1-39c81e32ad57, rgb(142, 142, 142)); flex-shrink: 0;"><g color="var(--token-2c541943-a99a-4ecb-bbe1-39c81e32ad57, rgb(142, 142, 142))" weight="duotone"><path d="M224,40V216a8,8,0,0,1-8,8H40a8,8,0,0,1-8-8V40a8,8,0,0,1,8-8H216A8,8,0,0,1,224,40Z" opacity="0.2"></path><path d="M216,24H40A16,16,0,0,0,24,40V216a16,16,0,0,0,16,16H216a16,16,0,0,0,16-16V40A16,16,0,0,0,216,24Zm0,192H40V40H216V216ZM96,112v64a8,8,0,0,1-16,0V112a8,8,0,0,1,16,0Zm88,28v36a8,8,0,0,1-16,0V140a20,20,0,0,0-40,0v36a8,8,0,0,1-16,0V112a8,8,0,0,1,15.79-1.78A36,36,0,0,1,184,140ZM100,84A12,12,0,1,1,88,72,12,12,0,0,1,100,84Z"></path></g></svg>